<svg width="143" height="35" viewBox="0 0 143 35" fill="none" xmlns="http://www.w3.org/2000/svg">
<path d="M88.6095 10.6219C87.4569 10.6219 86.6055 11.4899 86.5843 12.6847C86.5679 13.6373 87.1606 14.2065 88.1696 14.2065C89.3221 14.2065 90.1736 13.3386 90.1947 12.1437C90.2112 11.1911 89.6185 10.6219 88.6095 10.6219Z" fill="#FA0050"/>
<path d="M80.1914 19.8491C80.1279 20.209 80.0126 20.5453 79.8503 20.8464C79.688 21.1474 79.4834 21.4132 79.2482 21.6367C79.013 21.8554 78.7448 22.0295 78.4461 22.1541C77.8887 22.387 77.1995 22.4011 76.6915 22.1918C76.4563 22.0953 76.2517 21.9566 76.0823 21.7754C75.9153 21.5943 75.7883 21.3732 75.7036 21.1169C75.6189 20.8558 75.5837 20.5571 75.6025 20.2348C75.6237 19.842 75.7107 19.4681 75.8612 19.1176C76.0117 18.7695 76.2117 18.4614 76.4563 18.2003C76.6985 17.9416 76.9879 17.7346 77.3148 17.5817C77.637 17.4312 77.9851 17.3536 78.3473 17.3536C78.6672 17.3536 78.9565 17.4147 79.2106 17.5323C79.4646 17.6499 79.6763 17.8169 79.8409 18.031C80.0079 18.245 80.1255 18.5084 80.189 18.8095C80.2549 19.1176 80.2549 19.4681 80.189 19.8491M85.039 11.1041C84.9966 11.0524 84.9331 11.0218 84.8649 11.0218H82.3388C82.2306 11.0218 82.1389 11.0971 82.1177 11.2029C82.1177 11.2029 81.1416 16.0411 81.0805 16.3774C80.4454 15.2579 79.2035 14.5711 77.6582 14.5711C74.584 14.5711 72.3543 17.0431 72.3543 20.4512C72.3543 23.2549 74.0384 25.1389 76.548 25.1389C77.7523 25.1389 78.8107 24.6567 79.601 23.7818C79.5493 24.024 79.4975 24.2757 79.4434 24.5697C79.4317 24.6356 79.4505 24.7014 79.4928 24.7532C79.5351 24.8049 79.5986 24.8331 79.6645 24.8331H82.1859C82.2941 24.8331 82.3858 24.7555 82.407 24.6497L85.086 11.2923C85.0978 11.2264 85.0813 11.1582 85.039 11.1065" fill="#FA0050"/>
<path d="M89.0069 15.6601H86.3961C86.2856 15.6601 86.1892 15.7306 86.168 15.8271L84.4016 24.5838C84.3875 24.645 84.4063 24.7061 84.451 24.7555C84.4957 24.8026 84.5615 24.8308 84.6297 24.8308H87.2405C87.3511 24.8308 87.4475 24.7602 87.4687 24.6638L89.2351 15.907C89.2492 15.8459 89.2304 15.7847 89.1857 15.7353C89.141 15.6883 89.0751 15.6601 89.0069 15.6601Z" fill="#FA0050"/>
<path d="M54.9702 17.3042C54.9702 17.3042 52.4441 17.3183 52.3664 17.3183C52.3829 17.2383 53.0368 13.9924 53.0603 13.856C53.1873 13.8607 55.4759 13.8772 55.4759 13.8772C56.6284 13.8772 57.2634 14.4158 57.2634 15.3919C57.2634 16.6079 56.4285 17.3065 54.9702 17.3065M51.0258 24.0358C51.2915 22.8527 51.7831 20.2278 51.7949 20.1596C51.9101 20.1596 54.8643 20.1784 54.8643 20.1784C58.3877 20.1784 60.5775 18.2944 60.5775 15.2649C60.5775 12.6094 58.757 11.0241 55.7064 11.0241H50.466C50.3554 11.0241 50.2613 11.1018 50.2402 11.21L47.5847 24.4827C47.5706 24.5509 47.5964 24.6191 47.6388 24.6708C47.6811 24.7249 47.747 24.7555 47.8152 24.7555H48.8525L50.1531 24.7461C50.1531 24.7461 50.8635 24.7555 51.0258 24.0358Z" fill="#FA0050"/>
<path d="M107.661 22.1588C106.365 22.1588 105.589 21.4273 105.589 20.2042C105.589 18.6683 106.664 17.5535 108.143 17.5535C109.439 17.5535 110.216 18.285 110.216 19.508C110.216 21.0439 109.141 22.1588 107.661 22.1588ZM108.346 14.571C104.914 14.571 102.425 17.0172 102.425 20.3901C102.425 23.2737 104.401 25.1389 107.461 25.1389C110.891 25.1389 113.381 22.6927 113.381 19.3199C113.381 16.4362 111.406 14.571 108.346 14.571Z" fill="#FA0050"/>
<path d="M97.9895 19.8491C97.926 20.209 97.8107 20.5453 97.6485 20.8464C97.4862 21.1474 97.2815 21.4132 97.0463 21.6367C96.8111 21.8554 96.543 22.0295 96.2443 22.1541C95.6868 22.387 94.9977 22.4011 94.4896 22.1918C94.2544 22.0953 94.0498 21.9566 93.8804 21.7754C93.7134 21.5943 93.5864 21.3732 93.5018 21.1169C93.4171 20.8558 93.3818 20.5571 93.4006 20.2348C93.4218 19.842 93.5088 19.4681 93.6593 19.1176C93.8099 18.7695 94.0098 18.4614 94.2544 18.2003C94.4967 17.9416 94.786 17.7346 95.1129 17.5817C95.4352 17.4312 95.7833 17.3536 96.1455 17.3536C96.4654 17.3536 96.7547 17.4147 97.011 17.5323C97.2627 17.6499 97.4768 17.8169 97.6414 18.031C97.8084 18.245 97.926 18.5084 97.9895 18.8095C98.053 19.1176 98.053 19.4681 97.9895 19.8491ZM102.797 11.1041C102.755 11.0524 102.691 11.0218 102.623 11.0218H100.095C99.9888 11.0218 99.8947 11.0971 99.8735 11.2029C99.8735 11.2029 98.8974 16.0411 98.8362 16.3774C98.2012 15.2579 96.9593 14.5711 95.4163 14.5711C92.3422 14.5711 90.1124 17.0431 90.1124 20.4512C90.1124 23.2549 91.7965 25.1389 94.3062 25.1389C95.5104 25.1389 96.5689 24.6567 97.3591 23.7818C97.3074 24.024 97.258 24.2757 97.2016 24.5697C97.1898 24.6356 97.2086 24.7014 97.251 24.7532C97.2933 24.8049 97.3568 24.8331 97.4227 24.8331H99.9441C100.052 24.8331 100.144 24.7555 100.165 24.6497L102.844 11.2923C102.856 11.2264 102.839 11.1582 102.797 11.1065" fill="#FA0050"/>
<path d="M121.717 15.3378C120.4 14.738 119.048 14.477 117.808 14.5852C115.637 14.7757 114.393 16.0693 114.56 17.9651C114.661 19.1082 115.315 19.9831 116.559 20.6441L117.933 21.3638C118.495 21.6649 118.547 21.8036 118.563 21.9824C118.598 22.3917 118.13 22.4928 117.85 22.5187C116.992 22.5939 115.945 22.2694 114.826 21.5778C114.774 21.5449 114.71 21.5379 114.654 21.552C114.595 21.5661 114.546 21.6061 114.515 21.6578L113.414 23.6006C113.358 23.7018 113.386 23.8288 113.483 23.8946C114.849 24.8261 116.425 25.2447 118.036 25.1036C120.454 24.8919 121.738 23.6147 121.562 21.5967C121.456 20.3806 120.87 19.6092 119.541 18.9388L118.304 18.3132C117.577 17.9157 117.54 17.8145 117.523 17.624C117.514 17.5182 117.486 17.1936 118.18 17.1348C118.869 17.0736 119.772 17.283 120.659 17.7063C120.713 17.7322 120.776 17.7346 120.83 17.7134C120.887 17.6922 120.932 17.6499 120.957 17.5958L121.832 15.6318C121.882 15.5189 121.832 15.3896 121.722 15.3378" fill="#FA0050"/>
<path d="M135.369 11.0783C135.326 10.9959 135.242 10.9442 135.152 10.9442H131.582C131.502 10.9442 131.424 10.9842 131.379 11.0524C131.379 11.0524 127.835 16.0811 127.586 16.5609C127.52 16.1046 125.777 11.1276 125.777 11.1276C125.746 11.0242 125.652 10.9512 125.544 10.9512H122.42C122.34 10.9512 122.268 10.9889 122.22 11.0524C122.176 11.1159 122.164 11.2006 122.19 11.2735L125.502 19.6633L124.509 24.5391C124.495 24.6097 124.514 24.685 124.561 24.7391C124.608 24.7955 124.676 24.8284 124.749 24.8284H127.277C127.609 24.8284 127.894 24.5932 127.957 24.2686L128.842 19.7456L135.35 11.3276C135.404 11.2547 135.413 11.1559 135.371 11.0735" fill="#FA0050"/>
<path d="M139.141 19.7762C139.08 20.1196 138.972 20.4395 138.814 20.7288C138.659 21.0157 138.464 21.2698 138.238 21.4814C138.015 21.6908 137.758 21.8578 137.474 21.9754C136.942 22.1965 136.283 22.2106 135.799 22.013C135.573 21.9213 135.378 21.7872 135.218 21.6155C135.058 21.4438 134.936 21.2321 134.858 20.9875C134.776 20.7382 134.745 20.4536 134.759 20.1455C134.778 19.7715 134.863 19.414 135.006 19.08C135.15 18.7483 135.34 18.452 135.576 18.205C135.808 17.9604 136.084 17.7605 136.394 17.6146C136.702 17.4712 137.034 17.3982 137.382 17.3982C137.685 17.3982 137.963 17.4547 138.207 17.5676C138.45 17.6805 138.652 17.8404 138.81 18.0427C138.97 18.2473 139.08 18.4967 139.141 18.786C139.202 19.08 139.202 19.414 139.141 19.7785M142.952 14.8862C142.909 14.8368 142.848 14.8063 142.782 14.8063H140.32C140.216 14.8063 140.124 14.8815 140.106 14.9827C140.106 14.9827 140.012 15.4531 139.953 15.78V15.7918C139.393 15.1167 138.525 14.7028 137.664 14.651C136.876 14.6016 136.114 14.7287 135.378 15.0085C132.955 15.9306 131.342 18.3132 131.368 20.9263C131.391 23.1984 132.875 24.7226 135.138 24.8284C136.354 24.8849 137.412 24.5227 138.374 23.7041C138.325 23.9464 138.262 24.2663 138.219 24.4874C138.207 24.5509 138.226 24.6167 138.266 24.6661C138.309 24.7155 138.37 24.7438 138.433 24.7438H140.891C140.995 24.7438 141.086 24.6685 141.105 24.565L142.996 15.0673C143.008 15.0038 142.992 14.938 142.949 14.8862" fill="#FA0050"/>
<path d="M63.9856 18.4778C64.4514 17.3583 65.2957 16.7796 66.5517 16.7796C67.8078 16.7796 68.471 17.3606 68.511 18.4873C68.3087 18.4873 64.2044 18.4778 63.988 18.4778M66.6129 14.5617C63.2424 14.5617 60.7939 17.0172 60.7939 20.3995C60.7939 23.316 62.7555 25.1271 65.912 25.1271C67.342 25.1271 68.5251 24.7602 69.7717 23.9276C69.8846 23.8523 69.9011 23.6924 69.807 23.5959L68.2546 21.9918C68.1888 21.9236 68.0829 21.9095 67.9983 21.9542C67.3185 22.3164 66.6788 22.4764 65.9708 22.4764C64.5243 22.4764 63.6846 21.8154 63.6658 20.6653L70.7431 20.6417C70.849 20.6417 70.9384 20.5688 70.9619 20.4653C71.1218 19.7456 71.2135 19.2211 71.2135 18.6684C71.2135 16.1328 69.4495 14.5569 66.6082 14.5569" fill="#FA0050"/>
<path d="M23.8923 0.0188165H23.4877L21.6555 0H0.602129C0.270488 0 0 0.270488 0 0.602129V3.93971C0 7.60188 2.58492 9.6176 7.27494 9.6176L23.8923 9.64818C25.6493 9.64818 27.0723 11.0712 27.0723 12.8282C27.0723 14.5852 25.6493 16.0082 23.8923 16.0082H5.25687C4.98638 16.0082 4.74882 16.1916 4.68297 16.4551L0.275192 33.8698C0.230503 34.0462 0.270488 34.2343 0.383387 34.3802C0.496286 34.5236 0.667987 34.6083 0.851448 34.6083H6.75984C8.97314 34.6083 10.0363 32.7714 10.2879 31.807L12.0285 25.4776H23.897C30.9156 25.4776 36.6264 19.7668 36.6264 12.7459C36.6264 5.72493 30.9109 0.0188165 23.8923 0.0188165Z" fill="#FA0050"/>
</svg>
